<svg xmlns="http://www.w3.org/2000/svg" width="271" height="429" viewBox="0 0 271 429">
  <g fill="none" fill-rule="evenodd">
    <path fill="#FFFFFF" d="M135.195373,428.03699 C208.560066,428.03699 270.390746,377.912331 270.390746,292.630343 C270.390746,235.775685 225.325622,138.232237 135.195373,0 C45.0651244,136.658551 0,234.988842 0,294.990873 C3.48135721e-15,384.993919 61.8306805,428.03699 135.195373,428.03699 Z" opacity=".3"/>
    <path fill="#80CCFF" d="M135.128409,360.525854 C187.737633,360.525854 232.07591,324.581869 232.07591,263.42685 C232.07591,222.656838 199.760076,152.709225 135.128409,53.5840132 C70.4967409,151.580748 38.1809071,222.092599 38.1809071,265.119567 C38.1809071,329.660018 82.5191847,360.525854 135.128409,360.525854 Z"/>
    <path fill="#FFFFFF" d="M135.08299,303.80011 C170.525077,303.80011 200.395145,279.585158 200.395145,238.38589 C200.395145,210.919712 178.624426,163.796999 135.08299,97.0177508 C91.5415529,163.036759 69.7708345,210.539592 69.7708345,239.526249 C69.7708345,283.006235 99.6409025,303.80011 135.08299,303.80011 Z"/>
  </g>
</svg>
